<svg width="8" height="12" viewBox="0 0 8 12" fill="none" xmlns="http://www.w3.org/2000/svg">
<path d="M0.666452 6.46824L6.0066 11.8083C6.13011 11.9319 6.29499 12 6.4708 12C6.6466 12 6.81148 11.9319 6.93499 11.8083L7.32825 11.4151C7.58415 11.1589 7.58415 10.7425 7.32825 10.4867L2.84399 6.00249L7.33323 1.51326C7.45674 1.38965 7.52493 1.22487 7.52493 1.04916C7.52493 0.873261 7.45674 0.708482 7.33323 0.584775L6.93996 0.191705C6.81635 0.0680967 6.65157 8.11139e-08 6.47577 8.11139e-08C6.29997 8.11139e-08 6.13509 0.0680967 6.01158 0.191705L0.666452 5.53664C0.542648 5.66064 0.474649 5.8262 0.475039 6.0022C0.474649 6.17888 0.542648 6.34434 0.666452 6.46824Z" fill="#0D263B"/>
</svg>
