<svg width="16" height="16" viewBox="0 0 16 16" fill="none" xmlns="http://www.w3.org/2000/svg">
<g clip-path="url(#clip0_0_2083)">
<path d="M3.7776 2.03821C2.75554 2.03821 1.92407 2.86971 1.92407 3.89174C1.92407 4.91377 2.75557 5.74527 3.7776 5.74527C4.79963 5.74527 5.63113 4.9138 5.63113 3.89174C5.63113 2.86968 4.79967 2.03821 3.7776 2.03821ZM3.7776 4.80777C3.27248 4.80777 2.86157 4.39686 2.86157 3.89174C2.86157 3.38661 3.27251 2.97571 3.7776 2.97571C4.2827 2.97571 4.69363 3.38665 4.69363 3.89174C4.69363 4.39683 4.28273 4.80777 3.7776 4.80777Z" fill="#696969"/>
<path d="M11.5657 14.4678L9.90625 9.78757H6.69056L5.21806 6.2926H2.815L0.982562 11.2765C0.9085 11.478 0.893094 11.693 0.933 11.898H0V12.8355H7.93522L9.49803 15.4422C9.71119 15.7977 10.0916 16 10.4848 16C10.6403 16 10.7978 15.9684 10.9477 15.9021C11.4938 15.6606 11.7653 15.0306 11.5657 14.4678ZM3.29828 11.898L3.8565 11.0031L4.33012 11.898H3.29828ZM10.5685 15.0447C10.4713 15.0877 10.3567 15.0513 10.3021 14.9602L8.46622 11.898H5.39078L3.92313 9.12482L2.25841 11.7937C2.21766 11.859 2.14741 11.898 2.07044 11.898C1.96991 11.898 1.91347 11.8386 1.88878 11.8033C1.86409 11.7679 1.82784 11.6944 1.8625 11.6L3.46919 7.23013H4.59575L6.06825 10.7251H9.24397L10.6821 14.7811C10.7188 14.8845 10.6689 15.0003 10.5685 15.0447Z" fill="#696969"/>
<path d="M11.2405 3.52072C11.2405 2.92659 11.0002 2.60056 10.8247 2.3625C10.6795 2.16543 10.5918 2.04647 10.5918 1.76047C10.5918 1.47443 10.6795 1.3555 10.8247 1.15837C11.0001 0.92031 11.2405 0.594278 11.2405 0.00012207H10.303C10.303 0.286122 10.2153 0.405091 10.07 0.602185C9.89461 0.840247 9.6543 1.16628 9.6543 1.76043C9.6543 2.35456 9.89458 2.68059 10.07 2.91865C10.2153 3.11572 10.303 3.23469 10.303 3.52069C10.303 3.80678 10.2153 3.92575 10.07 4.12287C9.89458 4.36103 9.6543 4.68709 9.6543 5.28128C9.6543 5.87547 9.89455 6.20153 10.07 6.43959C10.2153 6.63672 10.303 6.75572 10.303 7.04178H11.2405C11.2405 6.44759 11.0002 6.12153 10.8247 5.88344C10.6795 5.68631 10.5918 5.56734 10.5918 5.28125C10.5918 4.99515 10.6795 4.87622 10.8247 4.67906C11.0002 4.44097 11.2405 4.1149 11.2405 3.52072Z" fill="#696969"/>
<path d="M13.6201 3.52074C13.6201 2.92662 13.3798 2.60059 13.2043 2.36252C13.0591 2.16546 12.9714 2.04649 12.9714 1.76049C12.9714 1.47446 13.0591 1.35552 13.2044 1.1584C13.3798 0.920431 13.6201 0.5944 13.6201 0.000244141H12.6826C12.6826 0.286244 12.5949 0.405213 12.4497 0.602306C12.2742 0.840369 12.0339 1.1664 12.0339 1.76056C12.0339 2.35468 12.2742 2.68071 12.4497 2.91877C12.5949 3.11584 12.6826 3.23481 12.6826 3.52081C12.6826 3.8069 12.5949 3.92587 12.4497 4.12299C12.2742 4.36109 12.0339 4.68715 12.0339 5.2813C12.0339 5.87546 12.2742 6.20155 12.4497 6.43962C12.5949 6.63674 12.6826 6.75574 12.6826 7.0418H13.6201C13.6201 6.44762 13.3798 6.12155 13.2044 5.88346C13.0591 5.68634 12.9714 5.56737 12.9714 5.28127C12.9714 4.99518 13.0591 4.87624 13.2044 4.67909C13.3798 4.44099 13.6201 4.11493 13.6201 3.52074Z" fill="#696969"/>
<path d="M16.0007 3.52084C16.0007 2.92671 15.7604 2.60068 15.585 2.36262C15.4397 2.16556 15.3521 2.04659 15.3521 1.76059C15.3521 1.47456 15.4397 1.35562 15.585 1.15849C15.7604 0.920431 16.0007 0.5944 16.0007 0.000244141H15.0632C15.0632 0.286244 14.9755 0.405213 14.8303 0.602306C14.6549 0.840369 14.4146 1.1664 14.4146 1.76056C14.4146 2.35468 14.6548 2.68071 14.8303 2.91877C14.9755 3.11584 15.0632 3.23481 15.0632 3.52081C15.0632 3.8069 14.9755 3.92587 14.8303 4.12299C14.6548 4.36109 14.4146 4.68715 14.4146 5.2813C14.4146 5.87546 14.6548 6.20155 14.8303 6.43962C14.9755 6.63674 15.0632 6.75574 15.0632 7.0418H16.0007C16.0007 6.44762 15.7605 6.12155 15.585 5.88346C15.4397 5.68634 15.3521 5.56737 15.3521 5.28127C15.3521 4.99518 15.4397 4.87624 15.585 4.67909C15.7605 4.44109 16.0007 4.11502 16.0007 3.52084Z" fill="#696969"/>
</g>
<defs>
<clipPath id="clip0_0_2083">
<rect width="16" height="16" fill="white"/>
</clipPath>
</defs>
</svg>
